<svg id="Layer_1" data-name="Layer 1" xmlns="http://www.w3.org/2000/svg" viewBox="0 0 44 32"><defs><style>.cls-1{fill:#ebebeb;}</style></defs><title>brand-discord</title><path id="surface1" class="cls-1" d="M40,12A21.05,21.05,0,0,0,30,8l-.49,1A19.31,19.31,0,0,1,39,14c-4-2.07-8-4-15-4S13.05,11.93,9,14a19.68,19.68,0,0,1,9.49-5L18,8A20.84,20.84,0,0,0,8,12S2.88,19.43,2,34c5.16,6,13,6,13,6l1.64-2.18A20.12,20.12,0,0,1,8,32c3.24,2.45,8.12,5,16,5s12.76-2.55,16-5a20.06,20.06,0,0,1-8.64,5.82L33,40s7.84,0,13-6C45.12,19.43,40,12,40,12ZM17.5,30A3.78,3.78,0,0,1,14,26a3.78,3.78,0,0,1,3.5-4A3.78,3.78,0,0,1,21,26,3.78,3.78,0,0,1,17.5,30Zm13,0A3.78,3.78,0,0,1,27,26a3.78,3.78,0,0,1,3.5-4A3.78,3.78,0,0,1,34,26,3.78,3.78,0,0,1,30.5,30Z" transform="translate(-2 -8)"/></svg>